:FULLY-SPECIFIED
:FORCE-ALL-JOINTS-BE-3DOF
:DEGREES
340
root 8.00336 15.6989 -19.9884 17.663 30.2019 19.6698
lfemur -22.3532 16.2701 -16.207
ltibia 53.223 0 0
lfoot -11.3547 -14.7383 0
ltoes 40.3373 0 0
rfemur -46.195 -20.926 36.1706
rtibia 65.9992 0 0
rfoot 16.6875 2.48361 0
rtoes 30.0412 0 0
lowerback 8.62018 -0.833075 -6.67712
upperback 4.37843 -1.50976 -3.31757
thorax 0.144996 -0.790918 0.48264
lowerneck -4.99889 -6.96143 -0.0615673
upperneck -0.266322 -9.41905 7.83452
head 1.58136 -4.57824 2.21746
lclavicle 4.44602e-14 -4.22297e-14 0
lhumerus -41.3631 -32.0841 94.6833
lradius 57.4758 0 0
lwrist 21.8011 0 0
lhand 0.658412 8.03057 0
lfingers 7.12502 0 0
lthumb 26.2384 36.1786 0
rclavicle 4.44602e-14 -4.22297e-14 0
rhumerus -59.8386 52.3326 -100.133
rradius 74.8372 0 0
rwrist 11.1983 0 0
rhand -9.73451 -9.12369 0
rfingers 7.12502 0 0
rthumb 16.2371 -784.979 0
341
root 7.94817 15.7095 -19.8533 17.7998 28.8132 19.6886
lfemur -22.5219 16.1489 -16.0773
ltibia 53.077 0 0
lfoot -11.261 -14.1859 0
ltoes 39.6298 0 0
rfemur -45.9912 -21.0623 36.0923
rtibia 66.3737 0 0
rfoot 16.5334 2.28115 0
rtoes 30.3383 0 0
lowerback 8.56321 -0.729225 -6.57538
upperback 4.33657 -1.36657 -3.30106
thorax 0.130132 -0.718971 0.433797
lowerneck -5.00932 -6.78857 0.0754198
upperneck -0.215926 -9.19826 7.72185
head 1.58711 -4.46798 2.16674
lclavicle 4.2892e-14 -4.15665e-14 0
lhumerus -41.4113 -31.7957 94.5992
lradius 57.3711 0 0
lwrist 21.7969 0 0
lhand 0.255916 7.94682 0
lfingers 7.12502 0 0
lthumb 25.8526 36.145 0
rclavicle 4.2892e-14 -4.15665e-14 0
rhumerus -59.689 51.588 -100.105
rradius 74.5406 0 0
rwrist 11.1898 0 0
rhand -9.94685 -9.25904 0
rfingers 7.12502 0 0
rthumb 16.0328 -785.036 0
342
root 7.89227 15.7202 -19.7174 17.9334 27.4122 19.7029
lfemur -22.6895 16.0246 -15.9454
ltibia 52.9261 0 0
lfoot -11.1687 -13.6288 0
ltoes 38.9168 0 0
rfemur -45.7848 -21.199 36.0093
rtibia 66.7497 0 0
rfoot 16.3745 2.07841 0
rtoes 30.6393 0 0
lowerback 8.5048 -0.624622 -6.47224
upperback 4.29393 -1.2223 -3.28467
thorax 0.115177 -0.646473 0.383945
lowerneck -5.02044 -6.61386 0.213946
upperneck -0.164617 -8.97516 7.60779
head 1.5931 -4.35657 2.11538
lclavicle 4.13069e-14 -4.08961e-14 0
lhumerus -41.4614 -31.5063 94.5166
lradius 57.2652 0 0
lwrist 21.7929 0 0
lhand -0.146485 7.86414 0
lfingers 7.12502 0 0
lthumb 25.4667 36.1115 0
rclavicle 4.13069e-14 -4.08961e-14 0
rhumerus -59.5331 50.8331 -100.07
rradius 74.241 0 0
rwrist 11.1781 0 0
rhand -10.1605 -9.39822 0
rfingers 7.12502 0 0
rthumb 15.8273 -785.066 0
343
root 7.83569 15.7309 -19.5805 18.0635 26 19.7125
lfemur -22.8561 15.8975 -15.8114
ltibia 52.7705 0 0
lfoot -11.0779 -13.0676 0
ltoes 38.1987 0 0
rfemur -45.576 -21.3359 35.9217
rtibia 67.1272 0 0
rfoot 16.211 1.87551 0
rtoes 30.9437 0 0
lowerback 8.44503 -0.519333 -6.36779
upperback 4.25056 -1.07703 -3.26838
thorax 0.100131 -0.573469 0.333144
lowerneck -5.03224 -6.43746 0.353896
upperneck -0.11242 -8.74994 7.49243
head 1.59934 -4.24408 2.06343
lclavicle 3.97058e-14 -4.02191e-14 0
lhumerus -41.5133 -31.2159 94.4354
lradius 57.1582 0 0
lwrist 21.7889 0 0
lhand -0.548609 7.78251 0
lfingers 7.12502 0 0
lthumb 25.081 36.0781 0
rclavicle 3.97058e-14 -4.02191e-14 0
rhumerus -59.3713 50.0685 -100.027
rradius 73.9387 0 0
rwrist 11.1634 0 0
rhand -10.3753 -9.54103 0
rfingers 7.12502 0 0
rthumb 15.6206 -785.068 0
344
root 7.77848 15.7416 -19.4429 18.1897 24.5777 19.717
lfemur -23.0216 15.7676 -15.6754
ltibia 52.6104 0 0
lfoot -10.9886 -12.5024 0
ltoes 37.4759 0 0
rfemur -45.3651 -21.473 35.8296
rtibia 67.5058 0 0
rfoot 16.0433 1.67254 0
rtoes 31.2512 0 0
lowerback 8.38398 -0.413423 -6.26209
upperback 4.20648 -0.930857 -3.2522
thorax 0.0849937 -0.500005 0.281455
lowerneck -5.0447 -6.25949 0.495153
upperneck -0.0593574 -8.52279 7.37583
head 1.60582 -4.13062 2.01091
lclavicle 3.80901e-14 -3.95358e-14 0
lhumerus -41.5669 -30.9249 94.3558
lradius 57.0504 0 0
lwrist 21.785 0 0
lhand -0.950277 7.70191 0
lfingers 7.12502 0 0
lthumb 24.6956 36.0448 0
rclavicle 3.80901e-14 -3.95358e-14 0
rhumerus -59.2036 49.295 -99.9777
rradius 73.6338 0 0
rwrist 11.1457 0 0
rhand -10.591 -9.68731 0
rfingers 7.12502 0 0
rthumb 15.413 -785.045 0
345
root 7.72067 15.7524 -19.3046 18.3117 23.1464 19.7162
lfemur -23.186 15.6349 -15.5377
ltibia 52.446 0 0
lfoot -10.9007 -11.9338 0
ltoes 36.7487 0 0
rfemur -45.1522 -21.6101 35.7331
rtibia 67.8854 0 0
rfoot 15.8714 1.46962 0
rtoes 31.5614 0 0
lowerback 8.32171 -0.306957 -6.15521
upperback 4.16174 -0.783866 -3.2361
thorax 0.069766 -0.426127 0.228937
lowerneck -5.0578 -6.08012 0.637601
upperneck -0.00545411 -8.29387 7.25808
head 1.61254 -4.01628 1.95787
lclavicle 3.64607e-14 -3.88465e-14 0
lhumerus -41.6222 -30.6332 94.2776
lradius 56.9417 0 0
lwrist 21.7811 0 0
lhand -1.35131 7.62231 0
lfingers 7.12502 0 0
lthumb 24.3107 36.0116 0
rclavicle 3.64607e-14 -3.88465e-14 0
rhumerus -59.0303 48.513 -99.9209
rradius 73.3268 0 0
rwrist 11.125 0 0
rhand -10.8075 -9.83686 0
rfingers 7.12502 0 0
rthumb 15.2047 -784.996 0
346
root 7.66231 15.7632 -19.1656 18.4289 21.7073 19.7097
lfemur -23.3492 15.4996 -15.3983
ltibia 52.2776 0 0
lfoot -10.8145 -11.3621 0
ltoes 36.0177 0 0
rfemur -44.9375 -21.747 35.6323
rtibia 68.2658 0 0
rfoot 15.6956 1.26686 0
rtoes 31.8741 0 0
lowerback 8.25828 -0.200002 -6.04724
upperback 4.11637 -0.636152 -3.22008
thorax 0.0544479 -0.351881 0.175651
lowerneck -5.07153 -5.89948 0.781124
upperneck 0.0492667 -8.06338 7.13926
head 1.6195 -3.90114 1.90433
lclavicle 3.48189e-14 -3.81517e-14 0
lhumerus -41.679 -30.3412 94.2011
lradius 56.8322 0 0
lwrist 21.7772 0 0
lhand -1.75152 7.5437 0
lfingers 7.12502 0 0
lthumb 23.9265 35.9784 0
rclavicle 3.48189e-14 -3.81517e-14 0
rhumerus -58.8515 47.7234 -99.8574
rradius 73.018 0 0
rwrist 11.1016 0 0
rhand -11.0246 -9.98953 0
rfingers 7.12502 0 0
rthumb 14.9959 -784.922 0
347
root 7.60344 15.774 -19.0259 18.541 20.2614 19.6971
lfemur -23.5113 15.3616 -15.2574
ltibia 52.1054 0 0
lfoot -10.7298 -10.7876 0
ltoes 35.2831 0 0
rfemur -44.7213 -21.8836 35.5274
rtibia 68.6467 0 0
rfoot 15.5162 1.06436 0
rtoes 32.1887 0 0
lowerback 8.19378 -0.092624 -5.93825
upperback 4.07039 -0.487805 -3.20412
thorax 0.0390399 -0.277313 0.121656
lowerneck -5.08586 -5.71771 0.925606
upperneck 0.104781 -7.8315 7.01945
head 1.6267 -3.78529 1.85035
lclavicle 3.31657e-14 -3.74518e-14 0
lhumerus -41.7374 -30.0489 94.1262
lradius 56.722 0 0
lwrist 21.7732 0 0
lhand -2.15074 7.46605 0
lfingers 7.12502 0 0
lthumb 23.5432 35.9452 0
rclavicle 3.31657e-14 -3.74518e-14 0
rhumerus -58.6675 46.9267 -99.7873
rradius 72.7076 0 0
rwrist 11.0754 0 0
rhand -11.2421 -10.1451 0
rfingers 7.12502 0 0
rthumb 14.7866 -784.825 0
348
root 7.5441 15.7848 -18.8856 18.6477 18.8099 19.6782
lfemur -23.6722 15.2211 -15.1152
ltibia 51.9296 0 0
lfoot -10.6467 -10.2107 0
ltoes 34.5454 0 0
rfemur -44.5037 -22.0198 35.4185
rtibia 69.0279 0 0
rfoot 15.3332 0.86223 0
rtoes 32.5049 0 0
lowerback 8.12828 0.0151117 -5.82831
upperback 4.02386 -0.338918 -3.18822
thorax 0.023542 -0.202468 0.0670124
lowerneck -5.10077 -5.53496 1.07093
upperneck 0.161066 -7.59841 6.89872
head 1.63414 -3.66884 1.79595
lclavicle 3.15022e-14 -3.67472e-14 0
lhumerus -41.7973 -29.7566 94.0529
lradius 56.6111 0 0
lwrist 21.7691 0 0
lhand -2.54877 7.38935 0
lfingers 7.12502 0 0
lthumb 23.1609 35.9121 0
rclavicle 3.15022e-14 -3.67472e-14 0
rhumerus -58.4784 46.1235 -99.7109
rradius 72.396 0 0
rwrist 11.0467 0 0
rhand -11.4598 -10.3035 0
rfingers 7.12502 0 0
rthumb 14.5772 -784.705 0
349
root 7.48433 15.7957 -18.7448 18.7484 17.3538 19.6526
lfemur -23.8318 15.0782 -14.9717
ltibia 51.7504 0 0
lfoot -10.5652 -9.63169 0
ltoes 33.8051 0 0
rfemur -44.285 -22.1554 35.3056
rtibia 69.4093 0 0
rfoot 15.1469 0.660577 0
rtoes 32.8225 0 0
lowerback 8.06183 0.123139 -5.71749
upperback 3.9768 -0.189583 -3.17236
thorax 0.00795464 -0.127394 0.0117809
lowerneck -5.11626 -5.35138 1.21698
upperneck 0.218098 -7.3643 6.77717
head 1.64181 -3.55186 1.74118
lclavicle 2.98297e-14 -3.60382e-14 0
lhumerus -41.8585 -29.4643 93.9814
lradius 56.4997 0 0
lwrist 21.7648 0 0
lhand -2.94545 7.31357 0
lfingers 7.12502 0 0
lthumb 22.7797 35.8791 0
rclavicle 2.98297e-14 -3.60382e-14 0
rhumerus -58.2843 45.3146 -99.6284
rradius 72.0835 0 0
rwrist 11.0153 0 0
rhand -11.6775 -10.4644 0
rfingers 7.12502 0 0
rthumb 14.3677 -784.563 0
350
root 7.42417 15.8065 -18.6035 18.8429 15.8944 19.6201
lfemur -23.9902 14.9328 -14.8272
ltibia 51.568 0 0
lfoot -10.4854 -9.051 0
ltoes 33.0624 0 0
rfemur -44.0653 -22.2903 35.189
rtibia 69.7905 0 0
rfoot 14.9575 0.459507 0
rtoes 33.1409 0 0
lowerback 7.99452 0.231393 -5.60588
upperback 3.92924 -0.0398897 -3.15653
thorax -0.00772193 -0.0521351 -0.0439789
lowerneck -5.1323 -5.1671 1.36365
upperneck 0.275852 -7.12934 6.65485
head 1.64971 -3.43446 1.68607
lclavicle 2.81492e-14 -3.53253e-14 0
lhumerus -41.9211 -29.1722 93.9116
lradius 56.3878 0 0
lwrist 21.7602 0 0
lhand -3.34059 7.23869 0
lfingers 7.12502 0 0
lthumb 22.4 35.846 0
rclavicle 2.81492e-14 -3.53253e-14 0
rhumerus -58.0856 44.5005 -99.5401
rradius 71.7703 0 0
rwrist 10.9815 0 0
rhand -11.895 -10.6276 0
rfingers 7.12502 0 0
rthumb 14.1584 -784.4 0
351
root 7.36366 15.8174 -18.4617 18.9307 14.4327 19.5802
lfemur -24.1473 14.785 -14.6818
ltibia 51.3826 0 0
lfoot -10.4072 -8.46898 0
ltoes 32.3178 0 0
rfemur -43.8448 -22.4243 35.0688
rtibia 70.1715 0 0
rfoot 14.7652 0.259129 0
rtoes 33.4599 0 0
lowerback 7.92641 0.339806 -5.49354
upperback 3.88123 0.110069 -3.14072
thorax -0.0234875 0.0232619 -0.100207
lowerneck -5.14887 -4.98228 1.51081
upperneck 0.334306 -6.89372 6.53187
head 1.65784 -3.31672 1.63065
lclavicle 2.64618e-14 -3.46088e-14 0
lhumerus -41.9849 -28.8806 93.8436
lradius 56.2756 0 0
lwrist 21.7555 0 0
lhand -3.73401 7.1647 0
lfingers 7.12502 0 0
lthumb 22.0218 35.8129 0
rclavicle 2.64618e-14 -3.46088e-14 0
rhumerus -57.8823 43.6819 -99.4461
rradius 71.4569 0 0
rwrist 10.9453 0 0
rhand -12.1122 -10.7931 0
rfingers 7.12502 0 0
rthumb 13.9494 -784.217 0
